<?xml version="1.0" encoding="UTF-8"?><svg xmlns="http://www.w3.org/2000/svg" xmlns:xlink="http://www.w3.org/1999/xlink" height="429.4" preserveAspectRatio="xMidYMid meet" version="1.0" viewBox="0.0 -11.1 464.1 429.4" width="464.1" zoomAndPan="magnify"><defs><clipPath id="a"><path d="M 0 4 L 421 4 L 421 416.839844 L 0 416.839844 Z M 0 4"/></clipPath><clipPath id="b"><path d="M 282 255 L 405 255 L 405 416.839844 L 282 416.839844 Z M 282 255"/></clipPath><clipPath id="c"><path d="M 356 81 L 464.109375 81 L 464.109375 257 L 356 257 Z M 356 81"/></clipPath></defs><g><g clip-path="url(#a)" id="change1_1"><path d="M 216.597656 357.113281 C 216.597656 357.113281 216.597656 357.109375 216.597656 357.105469 C 216.59375 357.109375 216.59375 357.109375 216.59375 357.109375 C 216.519531 357.050781 195.425781 339.578125 168.1875 368.695312 C 140.898438 397.863281 93.261719 393.277344 54.679688 347.84375 C 52.285156 342.445312 50.792969 336.683594 50.8125 330.34375 C 50.875 310.824219 65.796875 291.671875 79.214844 277.339844 C 83.230469 273.046875 87.667969 268.578125 92.417969 264.238281 C 92.414062 264.238281 92.410156 264.238281 92.410156 264.238281 L 92.414062 264.234375 C 70.089844 258.851562 57.53125 249.121094 50.179688 241.199219 C 32.382812 222.019531 32.914062 197.734375 15.445312 193.832031 C 12.355469 193.140625 9.371094 192.933594 6.558594 193.035156 C 5.945312 191.832031 5.324219 190.660156 4.683594 189.53125 C -3.8125 174.550781 0.355469 155.292969 8.394531 140.019531 C 28.089844 136.875 51.367188 129.152344 64.789062 110.757812 C 88.230469 78.628906 135.085938 93.457031 145.5 97.273438 C 146.222656 97.796875 146.953125 98.316406 147.671875 98.847656 C 145.660156 77.664062 147.449219 55.566406 155.007812 40.007812 C 170.820312 7.453125 201.613281 18.683594 238.433594 4.054688 C 250.882812 11.683594 265.796875 25.21875 260.574219 44.519531 C 252.011719 76.179688 326.785156 99.578125 326.847656 99.597656 C 326.847656 99.601562 326.84375 99.605469 326.84375 99.609375 C 340.324219 91.011719 355.621094 83.519531 371.777344 81.78125 C 371.996094 81.757812 372.214844 81.753906 372.433594 81.730469 C 371.332031 91.378906 374.414062 104.570312 397.121094 109.492188 C 434.632812 117.621094 398.453125 157.828125 417.878906 188.589844 C 437.304688 219.351562 356.40625 256.761719 356.40625 256.761719 C 350.136719 254.03125 343.800781 255.890625 339.9375 257.660156 C 337.703125 258.683594 335.671875 260.089844 333.878906 261.769531 C 292.71875 300.308594 421.996094 345.539062 342.96875 381.875 C 310.925781 396.609375 292.71875 407.507812 282.398438 415.296875 C 276.761719 416.011719 271.113281 416.589844 265.429688 416.128906 C 243.164062 414.316406 228.667969 397.375 222.230469 377.320312 C 220.085938 370.640625 218.226562 363.878906 216.597656 357.113281" fill="#f991a7"/></g><g id="change2_1"><path d="M 15.445312 193.832031 C 32.914062 197.734375 32.382812 222.019531 50.179688 241.199219 C 57.53125 249.121094 70.089844 258.851562 92.414062 264.234375 L 92.410156 264.238281 C 85.644531 264.914062 79.046875 265.800781 72.761719 266.9375 C 29.410156 274.785156 21.789062 222.980469 6.558594 193.035156 C 9.371094 192.933594 12.355469 193.140625 15.445312 193.832031" fill="#fc6b8d"/></g><g id="change2_2"><path d="M 168.1875 368.695312 C 195.425781 339.578125 216.519531 357.050781 216.59375 357.109375 C 212.179688 369.804688 206.03125 382.367188 196.695312 392.121094 C 187.746094 401.460938 175 404.992188 163.132812 406.660156 C 144.0625 409.339844 115.414062 418.359375 98.699219 408.757812 C 91.191406 404.441406 87.59375 396.757812 83.480469 389.484375 C 75.5625 375.472656 61.46875 363.136719 54.679688 347.84375 C 93.261719 393.277344 140.898438 397.863281 168.1875 368.695312" fill="#fc6b8d"/></g><g clip-path="url(#b)" id="change2_21"><path d="M 342.96875 381.875 C 421.996094 345.539062 292.71875 300.308594 333.878906 261.769531 C 335.671875 260.089844 337.703125 258.683594 339.9375 257.660156 C 343.800781 255.890625 350.136719 254.03125 356.40625 256.761719 C 356.410156 256.765625 356.414062 256.765625 356.417969 256.765625 C 364.921875 263.160156 373.539062 269.066406 381.996094 274.046875 C 395.558594 282.027344 407.195312 293.664062 403.550781 310.46875 C 399.613281 328.613281 384.894531 342.015625 383.636719 361.253906 C 383.269531 366.851562 383.980469 372.546875 382.789062 378.027344 C 378.449219 398 354.386719 411.707031 336.050781 415.890625 C 324.488281 418.527344 316.269531 414.945312 305.0625 413.871094 C 297.472656 413.144531 289.941406 414.34375 282.398438 415.296875 C 292.71875 407.507812 310.925781 396.609375 342.96875 381.875" fill="#fc6b8d"/></g><g id="change2_3"><path d="M 260.574219 44.519531 C 265.796875 25.21875 250.882812 11.683594 238.433594 4.054688 C 238.597656 3.988281 238.761719 3.929688 238.925781 3.863281 C 275.964844 -11.066406 281.410156 19.96875 318.03125 50.246094 C 332.386719 62.113281 332.28125 81.007812 326.847656 99.597656 C 326.785156 99.578125 252.011719 76.179688 260.574219 44.519531" fill="#fc6b8d"/></g><g id="change2_4"><path d="M 64.789062 110.757812 C 51.367188 129.152344 28.089844 136.875 8.394531 140.019531 C 10.390625 136.222656 12.625 132.667969 14.96875 129.492188 C 22.003906 119.945312 30.570312 117.292969 39.757812 110.789062 C 50.636719 103.097656 57.539062 91.066406 68.308594 83.214844 C 86.359375 70.046875 108.398438 73.421875 126.367188 84.410156 C 132.953125 88.4375 139.324219 92.773438 145.5 97.273438 C 135.085938 93.457031 88.230469 78.628906 64.789062 110.757812" fill="#fc6b8d"/></g><g clip-path="url(#c)" id="change2_22"><path d="M 417.878906 188.589844 C 398.453125 157.828125 434.632812 117.621094 397.121094 109.492188 C 374.414062 104.570312 371.332031 91.378906 372.433594 81.730469 C 385.8125 80.519531 398.316406 86.261719 408.902344 92.90625 C 426.1875 103.75 455.5625 115.992188 462.554688 135.191406 C 465.699219 143.816406 463.371094 152.503906 461.738281 161.207031 C 457.484375 183.890625 464.507812 211.804688 447.859375 231.460938 C 434.492188 247.242188 409.328125 252.585938 388.671875 255.046875 C 378.699219 256.234375 367.542969 257.058594 356.410156 256.761719 L 356.40625 256.761719 C 356.40625 256.761719 437.304688 219.351562 417.878906 188.589844" fill="#fc6b8d"/></g><g id="change2_5"><path d="M 221.136719 229.28125 C 216.847656 223.972656 211.679688 219.425781 206.320312 215.164062 C 200.882812 211 195.125 207.21875 189.070312 203.953125 C 176.984375 197.382812 163.84375 192.679688 150.308594 190.003906 C 143.53125 188.746094 136.683594 187.789062 129.800781 187.5 L 127.21875 187.371094 L 124.636719 187.351562 L 119.480469 187.328125 L 114.328125 187.546875 L 111.753906 187.683594 L 109.191406 187.9375 C 95.519531 189.183594 82.0625 192.191406 69.308594 196.9375 C 82.652344 194.289062 96.039062 192.476562 109.441406 192.011719 L 111.949219 191.914062 L 114.464844 191.933594 L 119.480469 191.910156 L 124.488281 192.117188 L 126.992188 192.226562 L 129.488281 192.445312 C 136.148438 192.871094 142.761719 193.839844 149.296875 195.136719 C 155.851562 196.332031 162.296875 198.097656 168.625 200.1875 C 174.976562 202.222656 181.160156 204.769531 187.230469 207.578125 C 193.269531 210.449219 199.171875 213.652344 204.851562 217.253906 C 210.523438 220.867188 216.03125 224.789062 221.136719 229.28125" fill="#fc6b8d"/></g><g id="change2_6"><path d="M 221.136719 229.28125 C 214.347656 219.261719 206.15625 210.226562 197.332031 201.898438 C 188.515625 193.542969 178.820312 186.074219 168.449219 179.628906 C 163.238281 176.453125 157.84375 173.558594 152.285156 171 C 146.71875 168.464844 140.960938 166.335938 135.078125 164.644531 C 129.203125 162.925781 123.15625 161.835938 117.105469 161.148438 C 111.027344 160.582031 104.921875 160.601562 98.917969 161.261719 C 104.949219 161.765625 110.886719 162.429688 116.714844 163.6875 C 118.175781 163.972656 119.617188 164.359375 121.0625 164.691406 L 123.226562 165.210938 L 125.363281 165.84375 C 126.78125 166.292969 128.222656 166.632812 129.625 167.105469 L 133.835938 168.53125 C 139.386719 170.601562 144.859375 172.851562 150.164062 175.484375 C 155.464844 178.128906 160.652344 180.988281 165.710938 184.085938 C 175.800781 190.332031 185.429688 197.355469 194.640625 204.949219 C 203.832031 212.574219 212.6875 220.65625 221.136719 229.28125" fill="#fc6b8d"/></g><g id="change2_7"><path d="M 221.136719 229.28125 C 218.117188 222.121094 214.285156 215.316406 210.1875 208.699219 C 206.035156 202.109375 201.535156 195.722656 196.640625 189.636719 C 191.796875 183.511719 186.5 177.742188 180.980469 172.195312 L 178.902344 170.125 L 176.75 168.125 C 175.300781 166.8125 173.902344 165.4375 172.402344 164.179688 L 167.953125 160.34375 L 163.375 156.65625 C 161.859375 155.414062 160.226562 154.316406 158.660156 153.144531 L 156.285156 151.410156 L 153.851562 149.761719 C 152.21875 148.675781 150.621094 147.539062 148.957031 146.503906 C 147.285156 145.476562 145.625 144.433594 143.941406 143.429688 C 142.269531 142.40625 140.515625 141.523438 138.804688 140.566406 L 136.226562 139.15625 C 135.363281 138.691406 134.472656 138.28125 133.597656 137.84375 L 128.316406 135.265625 L 122.90625 132.972656 C 121.117188 132.171875 119.277344 131.507812 117.4375 130.835938 C 115.597656 130.175781 113.785156 129.433594 111.914062 128.863281 C 108.164062 127.75 104.464844 126.503906 100.648438 125.648438 C 93.089844 123.699219 85.355469 122.566406 77.644531 121.824219 C 85.175781 123.714844 92.679688 125.507812 99.925781 128.117188 C 103.601562 129.246094 107.152344 130.726562 110.734375 132.082031 C 112.515625 132.789062 114.257812 133.597656 116.023438 134.335938 C 117.785156 135.089844 119.546875 135.832031 121.253906 136.703125 C 135.085938 143.261719 148.125 151.363281 160.160156 160.78125 C 166.25 165.402344 171.972656 170.496094 177.539062 175.742188 C 183.136719 180.96875 188.402344 186.542969 193.527344 192.257812 C 198.601562 198.015625 203.480469 203.96875 208.082031 210.144531 C 212.722656 216.292969 217.097656 222.660156 221.136719 229.28125" fill="#fc6b8d"/></g><g id="change2_8"><path d="M 240.300781 227.964844 C 240.992188 234.480469 242.804688 240.84375 244.917969 247.070312 C 247.144531 253.261719 249.835938 259.308594 253.03125 265.09375 C 256.183594 270.902344 259.84375 276.441406 263.878906 281.695312 C 265.867188 284.347656 268.046875 286.847656 270.214844 289.351562 L 273.609375 292.984375 C 274.753906 294.183594 275.964844 295.316406 277.136719 296.484375 C 281.945312 301.039062 287.003906 305.355469 292.433594 309.144531 L 294.449219 310.589844 L 296.523438 311.949219 L 300.691406 314.636719 L 304.980469 317.113281 L 307.132812 318.335938 L 309.339844 319.453125 C 321.050781 325.519531 333.503906 330.042969 346.28125 332.769531 C 334.136719 327.957031 322.390625 322.464844 311.328125 315.890625 L 309.253906 314.664062 L 307.230469 313.347656 L 303.175781 310.75 L 299.242188 307.984375 L 297.273438 306.605469 L 295.367188 305.140625 C 294.109375 304.152344 292.804688 303.222656 291.5625 302.214844 L 287.871094 299.144531 C 286.613281 298.15625 285.472656 297.03125 284.269531 295.980469 C 283.074219 294.917969 281.882812 293.851562 280.761719 292.710938 C 271.496094 283.894531 263.421875 273.867188 256.539062 263.03125 C 253.136719 257.59375 250.019531 251.949219 247.28125 246.105469 C 244.554688 240.253906 242.121094 234.234375 240.300781 227.964844" fill="#fc6b8d"/></g><g id="change2_9"><path d="M 240.300781 227.964844 C 240.558594 239.585938 242.472656 251.144531 245.28125 262.453125 C 248.0625 273.785156 252.027344 284.855469 257.074219 295.441406 C 259.644531 300.71875 262.511719 305.851562 265.679688 310.800781 C 268.875 315.734375 272.433594 320.445312 276.320312 324.855469 C 280.1875 329.285156 284.523438 333.292969 289.066406 336.980469 C 293.699219 340.574219 298.65625 343.714844 303.863281 346.273438 C 299.261719 342.722656 294.816406 339.097656 290.765625 335.050781 C 289.738281 334.0625 288.777344 333 287.78125 331.980469 L 286.304688 330.4375 L 284.910156 328.816406 C 283.996094 327.722656 283.011719 326.699219 282.125 325.585938 L 279.464844 322.253906 C 276.058594 317.699219 272.804688 313.046875 269.886719 308.171875 C 266.980469 303.289062 264.269531 298.292969 261.785156 293.171875 C 256.871094 282.898438 252.71875 272.242188 249.191406 261.335938 C 245.699219 250.417969 242.707031 239.308594 240.300781 227.964844" fill="#fc6b8d"/></g><g id="change2_10"><path d="M 240.300781 227.964844 C 239.007812 235.3125 238.566406 242.800781 238.4375 250.273438 C 238.371094 257.757812 238.6875 265.253906 239.484375 272.714844 C 240.21875 280.183594 241.511719 287.589844 243.09375 294.9375 L 243.699219 297.691406 L 244.402344 300.421875 C 244.894531 302.238281 245.308594 304.074219 245.871094 305.871094 L 247.480469 311.28125 L 249.273438 316.636719 C 249.855469 318.425781 250.605469 320.15625 251.265625 321.921875 L 252.285156 324.554688 L 253.402344 327.148438 C 254.164062 328.871094 254.863281 330.617188 255.675781 332.320312 C 256.496094 334.015625 257.296875 335.722656 258.140625 337.402344 C 258.964844 339.097656 259.925781 340.722656 260.8125 342.382812 L 262.167969 344.855469 C 262.628906 345.679688 263.136719 346.472656 263.617188 347.28125 L 266.554688 352.101562 L 269.746094 356.761719 C 270.78125 358.328125 271.929688 359.820312 273.066406 361.316406 C 274.21875 362.804688 275.296875 364.34375 276.519531 365.769531 C 278.980469 368.613281 281.332031 371.535156 283.976562 374.195312 C 289.089844 379.679688 294.765625 384.597656 300.632812 389.175781 C 295.535156 383.726562 290.410156 378.382812 285.914062 372.511719 C 283.535156 369.691406 281.433594 366.652344 279.246094 363.695312 C 278.175781 362.199219 277.1875 360.644531 276.148438 359.132812 C 275.117188 357.609375 274.078125 356.097656 273.152344 354.507812 C 265.386719 342.039062 259.050781 328.734375 254.203125 314.894531 C 251.675781 308.007812 249.6875 300.933594 247.902344 293.808594 C 246.082031 286.6875 244.710938 279.457031 243.519531 272.1875 C 242.390625 264.90625 241.523438 257.570312 240.992188 250.195312 C 240.410156 242.820312 240.15625 235.410156 240.300781 227.964844" fill="#fc6b8d"/></g><g id="change2_11"><path d="M 250.289062 235.625 C 255.339844 231.082031 260.839844 227.128906 266.503906 223.488281 C 272.179688 219.867188 278.089844 216.640625 284.148438 213.769531 C 290.230469 210.945312 296.445312 208.417969 302.820312 206.386719 C 309.179688 204.3125 315.65625 202.578125 322.242188 201.40625 C 328.804688 200.15625 335.449219 199.230469 342.136719 198.859375 L 344.640625 198.664062 L 347.152344 198.578125 L 352.175781 198.425781 L 357.207031 198.496094 L 359.726562 198.507812 L 362.238281 198.636719 C 375.664062 199.261719 389.046875 201.277344 402.3125 204.214844 C 389.527344 199.601562 376.097656 196.632812 362.460938 195.378906 L 359.902344 195.125 L 357.339844 194.984375 L 352.199219 194.757812 L 347.054688 194.765625 L 344.480469 194.777344 L 341.910156 194.902344 C 335.046875 195.160156 328.214844 196.078125 321.457031 197.300781 C 307.949219 199.871094 294.824219 204.453125 282.691406 210.859375 C 276.621094 214.046875 270.824219 217.734375 265.335938 221.808594 C 259.921875 225.972656 254.691406 230.425781 250.289062 235.625" fill="#fc6b8d"/></g><g id="change2_12"><path d="M 250.289062 235.625 C 258.628906 226.910156 267.464844 218.789062 276.664062 211.148438 C 281.300781 207.371094 285.964844 203.644531 290.839844 200.203125 C 295.679688 196.722656 300.625 193.394531 305.71875 190.324219 C 315.886719 184.152344 326.609375 178.910156 337.839844 175.023438 L 342.082031 173.652344 C 343.496094 173.191406 344.945312 172.867188 346.375 172.445312 L 348.523438 171.84375 L 350.703125 171.359375 C 352.15625 171.050781 353.605469 170.683594 355.074219 170.421875 C 360.933594 169.269531 366.894531 168.707031 372.925781 168.359375 C 366.921875 167.777344 360.832031 167.789062 354.773438 168.386719 C 348.742188 169.097656 342.722656 170.199219 336.863281 171.90625 C 331.003906 173.589844 325.277344 175.742188 319.707031 178.222656 C 314.167969 180.765625 308.785156 183.632812 303.550781 186.746094 C 298.382812 189.957031 293.339844 193.367188 288.488281 197.023438 C 283.664062 200.714844 278.972656 204.574219 274.527344 208.695312 C 265.617188 216.898438 257.308594 225.789062 250.289062 235.625" fill="#fc6b8d"/></g><g id="change2_13"><path d="M 250.289062 235.625 C 254.265625 228.972656 258.628906 222.589844 263.253906 216.421875 C 267.847656 210.230469 272.722656 204.265625 277.816406 198.507812 C 282.949219 192.785156 288.253906 187.222656 293.871094 182 C 299.472656 176.761719 305.238281 171.691406 311.367188 167.085938 C 323.496094 157.726562 336.640625 149.699219 350.578125 143.289062 C 352.296875 142.433594 354.070312 141.710938 355.84375 140.976562 C 357.621094 140.257812 359.375 139.46875 361.171875 138.785156 C 364.777344 137.472656 368.351562 136.039062 372.050781 134.960938 C 379.34375 132.464844 386.878906 130.78125 394.441406 129.054688 C 386.742188 129.863281 379.023438 131.015625 371.484375 132.984375 C 367.679688 133.84375 363.984375 135.085938 360.242188 136.203125 C 358.378906 136.773438 356.570312 137.515625 354.730469 138.171875 C 352.898438 138.839844 351.058594 139.5 349.273438 140.292969 L 343.875 142.578125 L 338.601562 145.136719 C 337.726562 145.570312 336.835938 145.976562 335.972656 146.4375 L 333.394531 147.835938 C 331.6875 148.785156 329.933594 149.660156 328.265625 150.675781 C 321.503906 154.613281 315.058594 159.070312 308.816406 163.769531 C 296.449219 173.34375 285.210938 184.328125 275.339844 196.398438 C 270.386719 202.417969 265.8125 208.734375 261.574219 215.257812 C 257.382812 221.800781 253.453125 228.535156 250.289062 235.625" fill="#fc6b8d"/></g><g id="change2_14"><path d="M 219.976562 236.117188 C 211.105469 237.269531 202.421875 239.757812 194.027344 242.90625 C 191.941406 243.730469 189.835938 244.519531 187.777344 245.414062 L 181.640625 248.199219 C 177.636719 250.242188 173.636719 252.296875 169.800781 254.652344 L 166.914062 256.394531 C 165.960938 256.988281 165.046875 257.648438 164.113281 258.273438 C 162.261719 259.554688 160.371094 260.773438 158.558594 262.101562 C 155.058594 264.925781 151.386719 267.53125 148.164062 270.683594 C 141.382812 276.585938 135.5625 283.507812 130.277344 290.679688 C 136.578125 284.332031 142.78125 278.007812 149.757812 272.542969 C 153.113281 269.660156 156.757812 267.148438 160.292969 264.515625 C 162.113281 263.265625 163.964844 262.0625 165.800781 260.835938 C 166.722656 260.234375 167.621094 259.59375 168.566406 259.023438 L 171.417969 257.34375 C 178.945312 252.730469 186.835938 248.707031 194.945312 245.167969 C 203.058594 241.636719 211.386719 238.542969 219.976562 236.117188" fill="#fc6b8d"/></g><g id="change2_15"><path d="M 241.015625 221.898438 C 227.089844 230.28125 213.746094 239.636719 200.878906 249.59375 C 188.023438 259.566406 175.636719 270.175781 163.929688 281.515625 C 152.261719 292.882812 141.210938 304.945312 131.460938 318.035156 C 126.613281 324.59375 121.976562 331.324219 117.960938 338.425781 C 113.980469 345.542969 110.328125 352.847656 107.519531 360.480469 C 114.371094 345.730469 123.386719 332.199219 133.402344 319.527344 C 138.40625 313.183594 143.703125 307.070312 149.179688 301.125 C 154.617188 295.148438 160.304688 289.390625 166.117188 283.769531 C 171.886719 278.097656 177.859375 272.636719 183.921875 267.273438 C 189.964844 261.882812 196.160156 256.664062 202.402344 251.5 C 208.671875 246.371094 215.011719 241.316406 221.453125 236.390625 C 227.855469 231.410156 234.398438 226.613281 241.015625 221.898438" fill="#fc6b8d"/></g><g id="change2_16"><path d="M 236.582031 229.757812 C 227.511719 235.949219 219.132812 243.132812 211.222656 250.773438 C 207.253906 254.589844 203.46875 258.589844 199.796875 262.695312 C 196.144531 266.824219 192.660156 271.101562 189.304688 275.480469 C 186.023438 279.917969 182.894531 284.46875 179.980469 289.160156 C 177.132812 293.894531 174.464844 298.738281 172.128906 303.746094 C 169.808594 308.765625 167.84375 313.9375 166.195312 319.199219 C 164.660156 324.503906 163.484375 329.898438 162.851562 335.351562 C 164.171875 330.019531 165.734375 324.792969 167.652344 319.695312 C 169.621094 314.617188 171.863281 309.664062 174.328125 304.824219 C 179.359375 295.195312 185.269531 286.050781 191.8125 277.367188 C 198.351562 268.679688 205.460938 260.410156 212.960938 252.492188 C 220.476562 244.589844 228.320312 236.96875 236.582031 229.757812" fill="#fc6b8d"/></g><g id="change2_17"><path d="M 245.238281 202.925781 C 249.414062 194.992188 252.296875 186.398438 254.421875 177.664062 C 254.917969 175.472656 255.457031 173.28125 255.867188 171.070312 L 257.003906 164.40625 C 257.550781 159.933594 258.070312 155.453125 258.253906 150.941406 L 258.40625 147.5625 C 258.441406 146.4375 258.398438 145.308594 258.398438 144.179688 C 258.355469 141.925781 258.394531 139.667969 258.289062 137.414062 L 257.730469 130.671875 C 257.617188 129.550781 257.589844 128.421875 257.386719 127.308594 L 256.847656 123.96875 C 255.636719 115.039062 252.996094 106.351562 249.765625 98.035156 C 251.328125 106.863281 253.019531 115.535156 253.601562 124.359375 C 254.082031 128.742188 254.132812 133.15625 254.328125 137.546875 L 254.308594 144.148438 C 254.292969 145.246094 254.320312 146.347656 254.269531 147.445312 L 254.074219 150.742188 C 253.734375 159.53125 252.71875 168.300781 251.234375 177.003906 C 249.738281 185.710938 247.796875 194.359375 245.238281 202.925781" fill="#fc6b8d"/></g><g id="change2_18"><path d="M 245.355469 228.320312 C 246.046875 220.207031 246.195312 212.0625 246.230469 203.917969 C 246.203125 195.773438 245.96875 187.628906 245.46875 179.492188 C 244.492188 163.222656 242.605469 146.988281 239.699219 130.914062 C 236.714844 114.859375 232.777344 98.921875 227.144531 83.542969 C 221.574219 68.183594 214.289062 53.273438 204.40625 40.308594 C 212.449219 54.460938 218.492188 69.460938 223.277344 84.851562 C 225.667969 92.542969 227.777344 100.324219 229.613281 108.175781 C 231.523438 116.003906 233.132812 123.910156 234.554688 131.851562 C 236.074219 139.777344 237.292969 147.761719 238.410156 155.765625 C 239.589844 163.757812 240.496094 171.792969 241.414062 179.832031 C 243.117188 195.929688 244.441406 212.078125 245.355469 228.320312" fill="#fc6b8d"/></g><g id="change2_19"><path d="M 241.289062 220.265625 C 241.1875 209.28125 239.878906 198.324219 237.921875 187.5 C 236.960938 182.082031 235.738281 176.710938 234.367188 171.375 C 232.96875 166.042969 231.351562 160.769531 229.574219 155.546875 C 227.714844 150.351562 225.667969 145.222656 223.390625 140.1875 C 221.039062 135.191406 218.496094 130.277344 215.632812 125.554688 C 212.753906 120.835938 209.546875 116.324219 206.089844 112.027344 C 202.535156 107.804688 198.703125 103.824219 194.527344 100.269531 C 198.222656 104.328125 201.699219 108.535156 204.863281 112.964844 C 207.992188 117.425781 210.863281 122.039062 213.515625 126.78125 C 218.722656 136.316406 223.035156 146.316406 226.613281 156.582031 C 230.199219 166.847656 233.117188 177.355469 235.53125 187.988281 C 237.917969 198.632812 239.890625 209.386719 241.289062 220.265625" fill="#fc6b8d"/></g><g id="change2_20"><path d="M 200.527344 246.203125 C 204.867188 256.425781 215.296875 267.25 226.558594 267.089844 C 234.269531 266.980469 234.359375 261.835938 246.980469 258.480469 C 259.234375 255.222656 263.753906 258.847656 269.902344 254.09375 C 277.101562 248.523438 277.589844 238.382812 277.613281 237.636719 C 277.871094 229.988281 273.734375 228.578125 271.863281 217.695312 C 270.183594 207.914062 273.140625 206.8125 271.113281 201.445312 C 267.277344 191.3125 252.90625 185.101562 240.585938 186.203125 C 234.085938 186.78125 222.550781 189.894531 219.65625 197.78125 C 217.730469 203.035156 221.113281 206.378906 218.472656 210.410156 C 214.96875 215.75 207.410156 212.328125 201.953125 216.945312 C 194.984375 222.84375 196.765625 237.347656 200.527344 246.203125" fill="#fc6b8d"/></g><g id="change3_1"><path d="M 255.113281 205.207031 C 249.296875 200.191406 239.515625 196.65625 232.570312 200.199219 C 227.820312 202.625 229.335938 205.847656 222.527344 211.785156 C 215.914062 217.554688 212.003906 216.683594 209.640625 221.515625 C 206.871094 227.175781 209.671875 233.617188 209.882812 234.089844 C 212.058594 238.914062 215.058594 238.527344 219.546875 244.710938 C 223.578125 250.269531 222.078125 251.855469 224.980469 254.566406 C 230.453125 259.683594 241.273438 259.148438 248.589844 254.699219 C 252.445312 252.351562 258.652344 246.894531 258.039062 241.113281 C 257.632812 237.265625 254.507812 236.222656 254.917969 232.914062 C 255.460938 228.527344 261.195312 228.34375 263.175781 223.808594 C 265.699219 218.015625 260.160156 209.558594 255.113281 205.207031" fill="#f9f67d"/></g></g></svg>