<?xml version="1.0" encoding="UTF-8"?><svg xmlns="http://www.w3.org/2000/svg" xmlns:xlink="http://www.w3.org/1999/xlink" height="402.4" preserveAspectRatio="xMidYMid meet" version="1.0" viewBox="0.0 0.0 256.2 402.4" width="256.2" zoomAndPan="magnify"><defs><clipPath id="a"><path d="M 16 0 L 256.199219 0 L 256.199219 342 L 16 342 Z M 16 0"/></clipPath><clipPath id="b"><path d="M 0 36 L 223 36 L 223 402.378906 L 0 402.378906 Z M 0 36"/></clipPath></defs><g><g clip-path="url(#a)" id="change1_1"><path d="M 220.882812 33.746094 C 220.589844 34.59375 220.335938 35.371094 220.183594 36.109375 C 220.03125 36.84375 219.945312 37.515625 219.890625 38.078125 C 219.835938 38.640625 219.835938 39.105469 219.835938 39.429688 C 219.824219 39.742188 219.847656 39.929688 219.847656 39.929688 C 219.847656 39.929688 220.03125 39.894531 220.328125 39.796875 C 220.636719 39.703125 221.085938 39.566406 221.601562 39.355469 C 222.117188 39.148438 222.726562 38.886719 223.371094 38.546875 C 224.035156 38.226562 224.746094 37.84375 225.480469 37.40625 C 226.203125 36.957031 226.945312 36.449219 227.683594 35.878906 C 228.449219 35.300781 229.214844 34.65625 229.953125 33.949219 C 231.433594 32.53125 232.796875 30.839844 234.109375 29.101562 C 234.796875 28.246094 235.421875 27.335938 236.054688 26.460938 C 236.65625 25.550781 237.261719 24.667969 237.792969 23.769531 C 238.347656 22.886719 238.835938 21.992188 239.292969 21.144531 C 239.75 20.289062 240.148438 19.460938 240.511719 18.683594 C 241.222656 17.121094 241.730469 15.746094 242.046875 14.75 C 242.195312 14.242188 242.3125 13.84375 242.390625 13.570312 C 242.457031 13.289062 242.492188 13.140625 242.492188 13.140625 C 242.492188 13.140625 242.351562 13.195312 242.078125 13.300781 C 241.820312 13.417969 241.441406 13.585938 240.957031 13.800781 C 240.011719 14.25 238.71875 14.941406 237.265625 15.859375 C 236.546875 16.324219 235.777344 16.835938 234.996094 17.402344 C 234.214844 17.972656 233.398438 18.574219 232.597656 19.242188 C 231.777344 19.894531 230.984375 20.613281 230.167969 21.332031 C 229.386719 22.078125 228.566406 22.820312 227.8125 23.621094 C 226.277344 25.21875 224.789062 26.859375 223.597656 28.566406 C 223.003906 29.421875 222.472656 30.285156 222.015625 31.144531 C 221.570312 32.039062 221.195312 32.917969 220.882812 33.746094 Z M 28.691406 220.214844 C 29.136719 221.800781 29.660156 223.367188 30.207031 224.929688 C 30.734375 226.503906 31.347656 228.042969 31.957031 229.582031 C 33.199219 232.65625 34.585938 235.652344 36.0625 238.535156 C 37.5625 241.410156 39.144531 244.175781 40.804688 246.769531 C 42.445312 249.371094 44.171875 251.800781 45.882812 254.050781 C 47.589844 256.300781 49.34375 258.335938 50.996094 260.179688 C 52.671875 262.011719 54.277344 263.636719 55.765625 265.027344 C 57.257812 266.414062 58.609375 267.578125 59.773438 268.5 C 62.085938 270.351562 63.605469 271.253906 63.605469 271.253906 L 64.433594 270.695312 C 64.433594 270.695312 64.171875 268.96875 63.507812 266.132812 C 63.1875 264.710938 62.757812 263.015625 62.242188 261.09375 C 61.992188 260.132812 61.683594 259.136719 61.394531 258.066406 C 61.078125 257.015625 60.746094 255.910156 60.402344 254.757812 C 59.671875 252.480469 58.90625 250.019531 58.015625 247.472656 C 57.140625 244.921875 56.164062 242.269531 55.15625 239.550781 C 54.125 236.835938 53.0625 234.050781 51.933594 231.257812 C 50.808594 228.476562 49.660156 225.65625 48.515625 222.832031 C 46.214844 217.257812 43.914062 211.679688 41.757812 206.449219 C 40.703125 203.835938 39.683594 201.304688 38.71875 198.90625 C 38.230469 197.699219 37.820312 196.523438 37.339844 195.382812 C 36.859375 194.238281 36.53125 193.125 36.089844 192.050781 C 35.628906 190.976562 35.367188 189.941406 34.96875 188.949219 C 34.789062 188.453125 34.589844 187.964844 34.441406 187.488281 C 34.296875 187.015625 34.144531 186.550781 33.984375 186.101562 C 33.332031 184.289062 32.886719 182.6875 32.433594 181.328125 C 31.992188 179.96875 31.730469 178.882812 31.476562 178.121094 C 31.230469 177.355469 31.097656 176.949219 31.097656 176.949219 L 30.105469 176.824219 C 30.105469 176.824219 29.890625 177.195312 29.523438 177.921875 C 29.339844 178.28125 29.113281 178.730469 28.867188 179.269531 C 28.613281 179.808594 28.324219 180.433594 28.089844 181.140625 C 27.578125 182.558594 26.972656 184.324219 26.546875 186.378906 C 26.285156 187.410156 26.089844 188.515625 25.925781 189.679688 C 25.828125 190.261719 25.753906 190.863281 25.679688 191.476562 C 25.597656 192.097656 25.535156 192.726562 25.492188 193.367188 C 25.296875 195.941406 25.238281 198.734375 25.390625 201.667969 C 25.558594 204.59375 25.902344 207.660156 26.457031 210.773438 C 27.011719 213.890625 27.75 217.066406 28.691406 220.214844 Z M 49.9375 169.339844 C 50.9375 173.042969 51.953125 176.832031 53.226562 180.507812 C 54.476562 184.195312 55.757812 187.878906 57.230469 191.410156 C 57.949219 193.183594 58.675781 194.9375 59.421875 196.65625 C 60.1875 198.371094 60.976562 200.046875 61.753906 201.695312 C 63.296875 204.996094 64.96875 208.109375 66.582031 211.042969 C 67.382812 212.511719 68.210938 213.921875 69.035156 215.269531 C 69.859375 216.617188 70.625 217.933594 71.433594 219.164062 C 73.039062 221.632812 74.542969 223.867188 75.972656 225.804688 C 77.394531 227.75 78.679688 229.414062 79.800781 230.753906 C 82.007812 233.457031 83.476562 234.882812 83.476562 234.882812 L 84.386719 234.464844 C 84.386719 234.464844 84.242188 232.429688 83.765625 229.007812 C 83.527344 227.296875 83.214844 225.230469 82.800781 222.894531 C 82.386719 220.558594 81.914062 217.929688 81.296875 215.113281 C 80.726562 212.277344 80.027344 209.25 79.269531 206.058594 C 78.519531 202.867188 77.632812 199.546875 76.726562 196.117188 C 76.261719 194.40625 75.78125 192.671875 75.265625 190.929688 C 74.789062 189.171875 74.277344 187.40625 73.75 185.632812 C 72.667969 182.089844 71.617188 178.496094 70.46875 174.929688 C 69.886719 173.148438 69.320312 171.367188 68.773438 169.59375 C 68.195312 167.824219 67.617188 166.0625 67.011719 164.324219 C 65.839844 160.839844 64.714844 157.417969 63.476562 154.125 C 62.347656 150.824219 61.203125 147.640625 60.011719 144.625 C 58.96875 141.597656 57.832031 138.75 56.78125 136.101562 C 56.226562 134.78125 55.808594 133.507812 55.339844 132.292969 C 54.851562 131.074219 54.390625 129.921875 53.960938 128.839844 C 52.992188 126.664062 52.347656 124.75 51.6875 123.160156 C 50.410156 119.980469 49.464844 118.109375 49.464844 118.109375 L 48.464844 118.160156 C 48.464844 118.160156 47.851562 120.101562 47.160156 123.578125 C 46.816406 125.3125 46.386719 127.457031 46.222656 129.875 C 46.027344 132.300781 45.824219 135.066406 45.777344 138.070312 C 45.847656 141.039062 45.921875 144.277344 46.167969 147.6875 C 46.523438 151.054688 46.96875 154.609375 47.554688 158.261719 C 48.242188 161.867188 48.992188 165.605469 49.9375 169.339844 Z M 115.960938 57.207031 C 115.796875 58.085938 115.601562 59.035156 115.429688 60.050781 C 115.089844 62.074219 114.773438 64.355469 114.519531 66.839844 C 114.273438 69.320312 114.09375 72.003906 114.007812 74.828125 C 113.9375 77.648438 113.886719 80.644531 114.078125 83.667969 C 114.253906 86.703125 114.535156 89.820312 114.921875 92.976562 C 115.300781 96.132812 115.808594 99.320312 116.371094 102.5 C 117.492188 108.855469 118.875 115.171875 120.574219 121.015625 C 121.410156 123.9375 122.292969 126.753906 123.195312 129.40625 C 124.117188 132.058594 125.019531 134.5625 125.949219 136.851562 C 126.394531 138 126.855469 139.09375 127.308594 140.132812 C 127.742188 141.175781 128.1875 142.152344 128.625 143.070312 C 129.472656 144.910156 130.285156 146.503906 130.980469 147.808594 C 132.363281 150.421875 133.332031 151.882812 133.332031 151.882812 L 134.316406 151.707031 C 134.316406 151.707031 134.730469 150.003906 135.140625 147.074219 C 135.351562 145.609375 135.570312 143.835938 135.742188 141.816406 C 135.839844 140.804688 135.925781 139.730469 135.996094 138.605469 C 136.078125 137.476562 136.152344 136.292969 136.191406 135.066406 C 136.316406 132.601562 136.34375 129.949219 136.339844 127.15625 C 136.320312 124.363281 136.226562 121.429688 136.054688 118.414062 C 135.890625 115.394531 135.609375 112.289062 135.324219 109.144531 C 135.027344 105.996094 134.652344 102.8125 134.195312 99.644531 C 133.742188 96.472656 133.242188 93.308594 132.625 90.214844 C 132.015625 87.117188 131.316406 84.085938 130.542969 81.167969 C 129.75 78.242188 129.027344 75.449219 128.171875 72.800781 C 127.335938 70.152344 126.445312 67.65625 125.542969 65.363281 C 124.628906 63.066406 123.714844 60.96875 122.84375 59.113281 C 122.40625 58.183594 121.960938 57.320312 121.566406 56.515625 C 121.140625 55.71875 120.746094 54.984375 120.390625 54.320312 C 118.921875 51.671875 117.847656 50.175781 117.847656 50.175781 C 117.847656 50.175781 117.207031 51.863281 116.503906 54.789062 C 116.324219 55.519531 116.15625 56.324219 115.960938 57.207031 Z M 74.628906 79.609375 C 74.429688 82.226562 74.253906 85.164062 74.234375 88.320312 C 74.164062 94.640625 74.570312 101.875 75.609375 109.464844 C 76.125 113.261719 76.792969 117.144531 77.605469 121.0625 C 78.40625 124.980469 79.390625 128.914062 80.441406 132.839844 C 81.476562 136.773438 82.660156 140.640625 83.851562 144.496094 C 85.054688 148.34375 86.328125 152.105469 87.679688 155.714844 C 90.359375 162.945312 93.269531 169.597656 96.085938 175.222656 C 96.789062 176.628906 97.492188 177.972656 98.179688 179.242188 C 98.847656 180.519531 99.515625 181.71875 100.167969 182.84375 C 100.800781 183.972656 101.425781 185.019531 102.019531 185.988281 C 102.59375 186.957031 103.160156 187.839844 103.675781 188.632812 C 105.722656 191.820312 107.136719 193.585938 107.136719 193.585938 L 108.109375 193.355469 C 108.109375 193.355469 108.589844 191.148438 108.996094 187.382812 C 109.101562 186.441406 109.214844 185.398438 109.296875 184.273438 C 109.398438 183.144531 109.488281 181.925781 109.550781 180.636719 C 109.632812 179.339844 109.695312 177.964844 109.722656 176.523438 C 109.769531 175.082031 109.804688 173.566406 109.804688 171.992188 C 109.8125 165.703125 109.449219 158.453125 108.621094 150.785156 C 108.21875 146.949219 107.675781 143.015625 107.039062 139.039062 C 106.417969 135.070312 105.605469 131.023438 104.726562 127.023438 C 103.847656 123.015625 102.898438 119.023438 101.796875 115.136719 C 100.707031 111.242188 99.503906 107.449219 98.207031 103.808594 C 95.621094 96.53125 92.648438 89.886719 89.679688 84.3125 C 88.210938 81.519531 86.707031 79.007812 85.332031 76.789062 C 84.636719 75.6875 83.941406 74.664062 83.320312 73.714844 C 82.652344 72.773438 82.0625 71.90625 81.488281 71.136719 C 79.214844 68.039062 77.609375 66.363281 77.609375 66.363281 L 76.640625 66.621094 C 76.640625 66.621094 76 68.90625 75.417969 72.753906 C 75.269531 73.714844 75.148438 74.765625 74.988281 75.921875 C 74.878906 77.0625 74.734375 78.300781 74.628906 79.609375 Z M 41.207031 300.121094 C 40.976562 298.085938 40.683594 295.894531 40.304688 293.601562 C 39.941406 291.300781 39.519531 288.890625 38.992188 286.429688 C 38.511719 283.949219 37.878906 281.429688 37.257812 278.867188 C 36.617188 276.3125 35.921875 273.730469 35.152344 271.171875 C 34.375 268.613281 33.578125 266.0625 32.75 263.570312 C 31.910156 261.082031 31.019531 258.648438 30.097656 256.308594 C 29.164062 253.96875 28.261719 251.726562 27.351562 249.601562 C 26.875 248.542969 26.414062 247.515625 25.964844 246.519531 C 25.488281 245.53125 25.027344 244.574219 24.585938 243.660156 C 23.636719 241.832031 22.847656 240.160156 22.054688 238.6875 C 21.265625 237.210938 20.539062 235.925781 19.902344 234.871094 C 18.644531 232.761719 17.769531 231.574219 17.769531 231.574219 L 16.792969 231.78125 C 16.792969 231.78125 16.535156 233.207031 16.359375 235.671875 C 16.265625 236.90625 16.199219 238.398438 16.164062 240.109375 C 16.144531 241.8125 16.128906 243.757812 16.28125 245.808594 C 16.359375 246.839844 16.445312 247.910156 16.53125 249.019531 C 16.648438 250.121094 16.769531 251.261719 16.894531 252.433594 C 17.203125 254.761719 17.496094 257.242188 18 259.726562 C 18.960938 264.71875 20.183594 270.015625 21.785156 275.164062 C 23.371094 280.328125 25.144531 285.433594 27.152344 290.101562 C 29.105469 294.789062 31.195312 299.074219 33.195312 302.675781 C 35.175781 306.28125 37.074219 309.210938 38.488281 311.222656 C 39.898438 313.238281 40.851562 314.335938 40.851562 314.335938 L 41.800781 314.027344 C 41.800781 314.027344 41.910156 312.574219 41.871094 310.117188 C 41.84375 307.65625 41.65625 304.199219 41.207031 300.121094 Z M 145.714844 20.066406 C 145.386719 20.910156 145.039062 21.835938 144.722656 22.828125 C 144.375 23.820312 144.054688 24.894531 143.792969 25.992188 C 143.503906 27.101562 143.246094 28.269531 143.003906 29.492188 C 142.480469 31.960938 142.179688 34.570312 141.933594 37.355469 C 141.675781 40.152344 141.664062 43.035156 141.71875 46.035156 C 141.773438 49.039062 142.058594 52.082031 142.425781 55.183594 C 142.828125 58.269531 143.308594 61.386719 143.867188 64.496094 C 145.003906 70.695312 146.46875 76.835938 148.160156 82.515625 C 149.019531 85.351562 149.890625 88.089844 150.824219 90.65625 C 151.304688 91.9375 151.769531 93.1875 152.21875 94.394531 C 152.707031 95.589844 153.175781 96.746094 153.628906 97.859375 C 154.570312 100.074219 155.488281 102.089844 156.359375 103.867188 C 157.222656 105.640625 158.039062 107.175781 158.738281 108.433594 C 160.132812 110.949219 161.109375 112.34375 161.109375 112.34375 L 162.09375 112.152344 C 162.09375 112.152344 162.464844 110.492188 162.84375 107.652344 C 163.234375 104.808594 163.628906 100.785156 163.851562 96.019531 C 163.894531 94.828125 163.9375 93.59375 163.980469 92.3125 C 163.996094 91.035156 164.011719 89.71875 164.027344 88.363281 C 164.027344 85.660156 163.992188 82.824219 163.871094 79.902344 C 163.757812 76.980469 163.589844 73.980469 163.347656 70.941406 C 163.128906 67.902344 162.832031 64.828125 162.484375 61.765625 C 162.183594 58.707031 161.746094 55.65625 161.355469 52.664062 C 160.972656 49.679688 160.402344 46.746094 159.839844 43.941406 C 159.277344 41.136719 158.539062 38.414062 157.863281 35.871094 C 157.164062 33.324219 156.324219 30.898438 155.597656 28.695312 C 154.839844 26.484375 153.972656 24.421875 153.285156 22.628906 C 152.605469 20.824219 151.785156 19.191406 151.246094 17.875 C 150.679688 16.554688 150.183594 15.464844 149.808594 14.710938 C 149.628906 14.332031 149.472656 14.039062 149.367188 13.839844 C 149.261719 13.640625 149.207031 13.535156 149.207031 13.535156 C 149.207031 13.535156 149.144531 13.628906 149.019531 13.804688 C 148.890625 13.980469 148.707031 14.246094 148.488281 14.597656 C 148.03125 15.300781 147.421875 16.351562 146.710938 17.75 C 146.355469 18.460938 146.023438 19.222656 145.714844 20.066406 Z M 184.996094 8.195312 C 184.386719 9.640625 183.734375 11.277344 183.117188 13.074219 C 182.800781 13.972656 182.476562 14.910156 182.1875 15.882812 C 181.878906 16.851562 181.570312 17.859375 181.296875 18.898438 C 180.695312 20.964844 180.1875 23.175781 179.710938 25.464844 C 179.242188 27.75 178.828125 30.125 178.484375 32.546875 C 178.128906 34.949219 177.910156 37.476562 177.710938 39.972656 C 177.53125 42.492188 177.304688 44.9375 177.34375 47.519531 C 177.34375 48.792969 177.347656 50.054688 177.378906 51.296875 C 177.398438 51.921875 177.414062 52.539062 177.433594 53.152344 C 177.464844 53.773438 177.539062 54.414062 177.59375 55.035156 C 177.898438 57.53125 178.089844 59.929688 178.714844 62.152344 C 178.960938 63.269531 179.265625 64.339844 179.53125 65.371094 C 179.796875 66.398438 180.175781 67.320312 180.488281 68.234375 C 181.140625 70.042969 181.765625 71.714844 182.394531 73.125 C 183.003906 74.550781 183.585938 75.785156 184.085938 76.800781 C 185.074219 78.828125 185.769531 79.964844 185.769531 79.964844 L 186.753906 79.800781 C 186.753906 79.800781 187.03125 78.5 187.296875 76.261719 C 187.433594 75.140625 187.574219 73.785156 187.679688 72.238281 C 187.785156 70.683594 187.925781 68.984375 187.992188 67.132812 C 188.039062 66.210938 188.046875 65.230469 188.105469 64.269531 C 188.171875 63.3125 188.277344 62.328125 188.3125 61.328125 C 188.355469 59.328125 188.699219 57.234375 188.90625 55.097656 C 188.957031 54.558594 188.980469 54.03125 189.050781 53.476562 C 189.136719 52.914062 189.222656 52.347656 189.308594 51.777344 C 189.476562 50.640625 189.621094 49.492188 189.757812 48.332031 C 189.992188 46.046875 190.382812 43.582031 190.636719 41.175781 C 190.921875 38.746094 191.109375 36.34375 191.324219 33.914062 C 191.515625 31.496094 191.632812 29.105469 191.671875 26.785156 C 191.710938 24.464844 191.683594 22.21875 191.566406 20.066406 C 191.535156 18.992188 191.464844 17.941406 191.382812 16.929688 C 191.316406 15.914062 191.214844 14.929688 191.109375 13.984375 C 190.910156 12.097656 190.644531 10.355469 190.378906 8.808594 C 190.105469 7.261719 189.8125 5.902344 189.542969 4.785156 C 188.984375 2.542969 188.515625 1.246094 188.515625 1.246094 C 188.515625 1.246094 187.765625 2.402344 186.71875 4.460938 C 186.199219 5.492188 185.609375 6.746094 184.996094 8.195312 Z M 208.070312 7.910156 C 207.609375 9.15625 207.214844 10.507812 206.78125 11.953125 C 206.386719 13.398438 206.011719 14.917969 205.664062 16.507812 C 205.320312 18.089844 205.039062 19.730469 204.761719 21.398438 C 204.515625 23.066406 204.28125 24.765625 204.113281 26.464844 C 203.921875 28.160156 203.816406 29.863281 203.691406 31.535156 C 203.601562 33.210938 203.5625 34.859375 203.605469 36.457031 C 203.632812 38.054688 203.761719 39.601562 203.902344 41.066406 C 204.070312 42.535156 204.269531 43.921875 204.523438 45.199219 C 205.011719 47.761719 205.652344 49.894531 206.199219 51.390625 C 206.46875 52.136719 206.730469 52.722656 206.910156 53.121094 C 207.078125 53.523438 207.203125 53.734375 207.203125 53.734375 L 208.203125 53.75 C 208.203125 53.75 208.328125 53.539062 208.511719 53.148438 C 208.707031 52.753906 208.984375 52.183594 209.289062 51.449219 C 209.894531 49.988281 210.628906 47.902344 211.273438 45.398438 C 211.59375 44.148438 211.882812 42.789062 212.15625 41.355469 C 212.390625 39.921875 212.648438 38.410156 212.804688 36.84375 C 212.96875 35.273438 213.105469 33.65625 213.164062 32.011719 C 213.195312 30.359375 213.304688 28.695312 213.296875 27.015625 C 213.308594 26.179688 213.320312 25.34375 213.332031 24.511719 C 213.324219 23.675781 213.316406 22.847656 213.308594 22.023438 C 213.296875 20.378906 213.273438 18.753906 213.195312 17.179688 C 213.164062 15.617188 213.058594 14.089844 212.992188 12.648438 C 212.949219 11.929688 212.90625 11.226562 212.867188 10.546875 C 212.820312 9.867188 212.746094 9.199219 212.726562 8.574219 C 212.53125 6.027344 212.375 3.902344 212.261719 2.414062 C 212.21875 0.9375 212.15625 -0.00390625 212.15625 -0.00390625 C 212.15625 -0.00390625 211.617188 0.675781 210.730469 2.03125 C 210.34375 2.714844 209.917969 3.554688 209.4375 4.546875 C 208.964844 5.539062 208.550781 6.664062 208.070312 7.910156 Z M 147.695312 275.644531 C 147.695312 275.644531 147.277344 275.730469 146.488281 275.886719 C 145.703125 276.039062 144.621094 276.335938 143.222656 276.628906 C 141.816406 276.914062 140.195312 277.328125 138.296875 277.691406 C 137.351562 277.871094 136.390625 278.136719 135.328125 278.308594 C 134.265625 278.480469 133.222656 278.777344 132.066406 278.960938 C 129.816406 279.386719 127.378906 279.851562 124.800781 280.339844 C 122.238281 280.8125 119.539062 281.3125 116.746094 281.824219 C 113.957031 282.347656 111.074219 282.886719 108.148438 283.429688 C 105.214844 284 102.234375 284.578125 99.253906 285.152344 C 93.289062 286.34375 87.292969 287.609375 81.648438 288.980469 C 78.824219 289.667969 76.089844 290.363281 73.488281 291.078125 C 70.886719 291.78125 68.421875 292.542969 66.136719 293.238281 C 63.855469 293.960938 61.753906 294.660156 59.886719 295.324219 C 58.019531 295.996094 56.386719 296.605469 55.035156 297.15625 C 52.332031 298.234375 50.773438 299.007812 50.773438 299.007812 L 50.789062 300.007812 C 50.789062 300.007812 52.394531 300.734375 55.222656 301.574219 C 56.640625 302.003906 58.363281 302.453125 60.34375 302.886719 C 62.324219 303.324219 64.5625 303.710938 67.011719 304.058594 C 69.453125 304.371094 72.109375 304.667969 74.914062 304.804688 C 77.722656 304.953125 80.683594 305.003906 83.738281 304.90625 C 89.855469 304.742188 96.363281 304.007812 102.796875 302.679688 C 104.402344 302.351562 106.007812 301.996094 107.597656 301.582031 C 109.1875 301.1875 110.769531 300.753906 112.324219 300.269531 C 115.441406 299.339844 118.476562 298.242188 121.363281 297.042969 C 122.804688 296.449219 124.210938 295.785156 125.574219 295.148438 C 126.9375 294.492188 128.253906 293.789062 129.523438 293.101562 C 130.789062 292.402344 132 291.660156 133.15625 290.933594 C 134.304688 290.183594 135.410156 289.445312 136.4375 288.699219 C 138.496094 287.171875 140.316406 285.710938 141.824219 284.246094 C 143.355469 282.84375 144.570312 281.453125 145.535156 280.3125 C 146.03125 279.757812 146.425781 279.199219 146.769531 278.71875 C 147.113281 278.246094 147.394531 277.832031 147.617188 277.496094 C 148.066406 276.824219 148.285156 276.453125 148.285156 276.453125 Z M 189.207031 231.855469 C 187.496094 232.046875 185.507812 232.410156 183.140625 232.617188 C 181.980469 232.761719 180.75 232.917969 179.449219 233.078125 C 178.160156 233.257812 176.84375 233.507812 175.421875 233.664062 C 172.59375 234.027344 169.550781 234.410156 166.398438 234.964844 C 163.183594 235.378906 159.84375 235.917969 156.40625 236.53125 C 152.929688 237.042969 149.386719 237.714844 145.773438 238.375 C 143.957031 238.6875 142.136719 239.035156 140.308594 239.386719 C 138.488281 239.765625 136.660156 240.132812 134.816406 240.488281 C 131.140625 241.203125 127.488281 242.027344 123.863281 242.796875 C 122.058594 243.195312 120.265625 243.601562 118.5 244.035156 C 116.722656 244.425781 114.972656 244.847656 113.25 245.269531 C 109.8125 246.136719 106.476562 246.96875 103.320312 247.855469 C 100.164062 248.738281 97.171875 249.589844 94.414062 250.464844 C 91.652344 251.289062 89.125 252.148438 86.878906 252.914062 C 84.632812 253.683594 82.675781 254.410156 81.0625 255.03125 C 77.839844 256.273438 75.988281 257.132812 75.988281 257.132812 L 76.0625 258.128906 C 76.0625 258.128906 78.023438 258.722656 81.453125 259.347656 C 83.167969 259.679688 85.25 260 87.636719 260.300781 C 90.027344 260.613281 92.710938 260.847656 95.648438 261.058594 C 97.113281 261.167969 98.636719 261.199219 100.214844 261.269531 C 101.796875 261.335938 103.429688 261.382812 105.101562 261.371094 C 108.449219 261.363281 111.980469 261.316406 115.617188 261.070312 C 117.4375 260.953125 119.285156 260.828125 121.152344 260.667969 C 123.019531 260.488281 124.90625 260.273438 126.808594 260.046875 C 130.613281 259.628906 134.453125 258.964844 138.285156 258.269531 C 142.117188 257.605469 145.921875 256.660156 149.652344 255.742188 C 153.375 254.765625 157.007812 253.609375 160.496094 252.464844 C 163.976562 251.210938 167.300781 249.878906 170.417969 248.558594 C 173.523438 247.125 176.394531 245.621094 179.023438 244.246094 C 181.628906 242.75 183.953125 241.234375 185.976562 239.886719 C 188.015625 238.570312 189.683594 237.15625 191.035156 236.015625 C 193.742188 233.726562 195.140625 232.253906 195.140625 232.253906 L 194.703125 231.355469 C 194.703125 231.355469 192.609375 231.433594 189.207031 231.855469 Z M 224.304688 140.394531 C 222.816406 140.5625 221.273438 140.761719 219.6875 140.988281 C 218.085938 141.191406 216.441406 141.425781 214.757812 141.6875 C 211.398438 142.226562 207.867188 142.84375 204.234375 143.558594 C 200.617188 144.300781 196.878906 145.109375 193.113281 146.03125 C 189.351562 146.964844 185.53125 147.96875 181.738281 149.050781 C 174.144531 151.183594 166.597656 153.554688 159.578125 156.027344 C 156.066406 157.253906 152.6875 158.523438 149.496094 159.773438 C 146.308594 161.039062 143.300781 162.277344 140.539062 163.492188 C 139.15625 164.082031 137.835938 164.683594 136.585938 165.269531 C 135.328125 165.835938 134.144531 166.398438 133.035156 166.941406 C 130.808594 168.011719 128.882812 169.011719 127.300781 169.855469 C 124.140625 171.542969 122.363281 172.675781 122.363281 172.675781 L 122.59375 173.648438 C 122.59375 173.648438 124.683594 173.886719 128.277344 173.964844 C 130.074219 174.011719 132.25 174.035156 134.722656 173.96875 C 135.964844 173.949219 137.28125 173.914062 138.660156 173.839844 C 140.046875 173.78125 141.496094 173.707031 143.003906 173.59375 C 144.515625 173.496094 146.089844 173.386719 147.703125 173.21875 C 149.324219 173.066406 151 172.921875 152.710938 172.71875 C 156.136719 172.328125 159.730469 171.828125 163.433594 171.246094 C 170.835938 170.050781 178.65625 168.457031 186.394531 166.492188 C 190.261719 165.5 194.121094 164.488281 197.878906 163.304688 C 201.640625 162.144531 205.3125 160.910156 208.835938 159.566406 C 212.359375 158.246094 215.730469 156.847656 218.894531 155.386719 C 220.476562 154.664062 222.003906 153.9375 223.476562 153.214844 C 224.945312 152.464844 226.355469 151.722656 227.699219 150.984375 C 229.050781 150.257812 230.316406 149.5 231.53125 148.808594 C 232.746094 148.097656 233.867188 147.335938 234.929688 146.667969 C 237.039062 145.269531 238.855469 144.050781 240.296875 142.871094 C 243.191406 140.585938 244.703125 139.078125 244.703125 139.078125 C 244.703125 139.078125 242.511719 138.996094 238.925781 139.203125 C 238.027344 139.253906 237.054688 139.339844 235.960938 139.367188 C 234.890625 139.441406 233.730469 139.519531 232.492188 139.601562 C 231.269531 139.71875 229.964844 139.8125 228.609375 139.964844 C 227.238281 140.101562 225.789062 140.210938 224.304688 140.394531 Z M 244.652344 180.214844 C 244.652344 180.214844 242.066406 179.644531 237.683594 179.195312 C 236.585938 179.078125 235.378906 178.992188 234.0625 178.875 C 232.757812 178.804688 231.339844 178.703125 229.835938 178.640625 C 226.828125 178.53125 223.460938 178.492188 219.8125 178.566406 C 212.523438 178.730469 204.140625 179.417969 195.308594 180.757812 C 190.890625 181.421875 186.359375 182.246094 181.785156 183.21875 C 177.210938 184.179688 172.605469 185.324219 168.015625 186.539062 C 158.835938 188.957031 149.757812 191.78125 141.335938 194.8125 C 137.128906 196.328125 133.082031 197.894531 129.269531 199.46875 C 127.359375 200.242188 125.519531 201.066406 123.734375 201.847656 C 121.945312 202.609375 120.234375 203.410156 118.59375 204.1875 C 116.945312 204.941406 115.378906 205.710938 113.890625 206.464844 C 112.398438 207.195312 110.992188 207.921875 109.679688 208.632812 C 108.359375 209.316406 107.132812 209.996094 106 210.640625 C 104.863281 211.261719 103.832031 211.871094 102.898438 212.429688 C 99.164062 214.636719 97.089844 216.140625 97.089844 216.140625 L 97.328125 217.113281 C 97.328125 217.113281 99.863281 217.496094 104.199219 217.738281 C 105.285156 217.804688 106.484375 217.867188 107.78125 217.902344 C 109.082031 217.953125 110.484375 217.988281 111.972656 217.992188 C 113.46875 218.015625 115.054688 218.019531 116.714844 217.980469 C 118.382812 217.964844 120.128906 217.929688 121.9375 217.839844 C 123.753906 217.777344 125.644531 217.699219 127.585938 217.554688 C 129.53125 217.425781 131.542969 217.3125 133.597656 217.121094 C 137.710938 216.769531 142.023438 216.296875 146.460938 215.710938 C 155.332031 214.527344 164.699219 212.863281 173.960938 210.789062 C 178.597656 209.757812 183.214844 208.660156 187.71875 207.410156 C 192.222656 206.171875 196.625 204.820312 200.855469 203.382812 C 209.3125 200.511719 217.070312 197.265625 223.613281 194.066406 C 226.882812 192.453125 229.855469 190.871094 232.46875 189.390625 C 233.777344 188.648438 234.988281 187.90625 236.113281 187.246094 C 237.230469 186.535156 238.257812 185.90625 239.179688 185.296875 C 242.859375 182.878906 244.890625 181.1875 244.890625 181.1875 Z M 109.515625 320.589844 C 108.285156 320.542969 106.8125 320.53125 105.140625 320.554688 C 103.464844 320.574219 101.621094 320.691406 99.5625 320.746094 C 98.546875 320.804688 97.488281 320.863281 96.390625 320.925781 C 95.304688 321.015625 94.179688 321.109375 93.027344 321.203125 C 90.722656 321.433594 88.328125 321.730469 85.824219 322.046875 C 83.332031 322.375 80.773438 322.773438 78.1875 323.242188 C 75.605469 323.726562 72.988281 324.261719 70.375 324.824219 C 67.761719 325.386719 65.164062 326.03125 62.617188 326.707031 C 60.078125 327.402344 57.566406 328.070312 55.164062 328.847656 C 52.753906 329.582031 50.441406 330.378906 48.253906 331.171875 C 46.0625 331.953125 44.003906 332.753906 42.109375 333.539062 C 38.324219 335.121094 35.210938 336.628906 33.042969 337.796875 C 30.875 338.953125 29.65625 339.75 29.65625 339.75 L 29.84375 340.734375 C 29.84375 340.734375 31.269531 341.039062 33.714844 341.292969 C 36.160156 341.558594 39.640625 341.800781 43.753906 341.785156 C 47.875 341.792969 52.636719 341.546875 57.683594 340.984375 C 62.738281 340.484375 68.066406 339.5625 73.347656 338.449219 C 78.632812 337.359375 83.855469 335.863281 88.691406 334.289062 C 91.109375 333.527344 93.421875 332.582031 95.609375 331.722656 C 96.695312 331.265625 97.75 330.820312 98.773438 330.386719 C 99.785156 329.929688 100.761719 329.484375 101.703125 329.058594 C 103.570312 328.195312 105.265625 327.238281 106.746094 326.394531 C 108.226562 325.539062 109.5 324.757812 110.53125 324.078125 C 112.605469 322.730469 113.726562 321.816406 113.726562 321.816406 L 113.4375 320.859375 C 113.4375 320.859375 111.972656 320.667969 109.515625 320.589844 Z M 225.101562 104.148438 C 223.621094 104.371094 222.128906 104.632812 220.609375 104.910156 C 217.558594 105.453125 214.425781 106.101562 211.242188 106.839844 C 208.066406 107.59375 204.824219 108.347656 201.582031 109.160156 C 198.339844 109.96875 195.09375 110.792969 191.898438 111.664062 C 188.703125 112.539062 185.554688 113.417969 182.515625 114.34375 C 179.476562 115.265625 176.535156 116.191406 173.75 117.132812 C 172.359375 117.613281 171.003906 118.078125 169.695312 118.53125 C 168.386719 119.011719 167.121094 119.472656 165.910156 119.917969 C 163.484375 120.835938 161.261719 121.714844 159.296875 122.535156 C 157.328125 123.359375 155.617188 124.121094 154.210938 124.773438 C 151.390625 126.074219 149.792969 126.96875 149.792969 126.96875 L 149.917969 127.960938 C 149.917969 127.960938 151.699219 128.429688 154.78125 128.914062 C 156.324219 129.160156 158.195312 129.410156 160.332031 129.636719 C 162.472656 129.859375 164.878906 130.039062 167.5 130.179688 C 168.808594 130.226562 170.171875 130.277344 171.582031 130.328125 C 172.988281 130.335938 174.445312 130.34375 175.941406 130.355469 C 178.929688 130.335938 182.070312 130.226562 185.3125 130.023438 C 191.796875 129.609375 198.675781 128.800781 205.507812 127.5625 C 208.925781 126.964844 212.324219 126.210938 215.667969 125.417969 C 219.007812 124.609375 222.265625 123.625 225.382812 122.519531 C 226.9375 121.953125 228.460938 121.347656 229.941406 120.738281 C 231.421875 120.09375 232.855469 119.4375 234.238281 118.761719 C 237.011719 117.371094 239.574219 115.878906 241.871094 114.324219 C 244.164062 112.757812 246.195312 111.144531 247.890625 109.546875 C 248.742188 108.730469 249.507812 107.984375 250.183594 107.199219 C 250.867188 106.425781 251.441406 105.667969 251.953125 105.007812 C 252.929688 103.535156 253.597656 102.414062 253.910156 101.5 C 254.082031 101.070312 254.195312 100.742188 254.265625 100.519531 C 254.335938 100.300781 254.371094 100.1875 254.371094 100.1875 C 254.371094 100.1875 253.902344 100.300781 253.023438 100.515625 C 252.21875 100.753906 250.941406 100.941406 249.488281 101.199219 C 248.730469 101.3125 247.875 101.378906 247.015625 101.519531 C 246.140625 101.640625 245.136719 101.699219 244.148438 101.839844 C 242.128906 102.050781 239.847656 102.285156 237.359375 102.539062 C 234.886719 102.808594 232.214844 103.113281 229.414062 103.507812 C 228.007812 103.703125 226.558594 103.902344 225.101562 104.148438 Z M 223.691406 75.226562 C 221.363281 75.957031 219.058594 76.65625 216.75 77.457031 C 214.453125 78.222656 212.128906 79.132812 209.945312 79.851562 C 208.84375 80.234375 207.75 80.621094 206.675781 81.035156 C 206.140625 81.242188 205.605469 81.445312 205.074219 81.652344 C 204.550781 81.835938 204.039062 81.976562 203.523438 82.140625 C 201.480469 82.800781 199.507812 83.585938 197.5625 84.058594 C 196.597656 84.308594 195.65625 84.621094 194.734375 84.894531 C 193.808594 85.15625 192.855469 85.375 191.964844 85.621094 C 190.167969 86.082031 188.542969 86.582031 187.046875 87.019531 C 185.558594 87.457031 184.265625 87.886719 183.199219 88.257812 C 181.070312 89 179.859375 89.550781 179.859375 89.550781 L 179.910156 90.546875 C 179.910156 90.546875 181.171875 90.980469 183.363281 91.511719 C 184.460938 91.78125 185.789062 92.082031 187.3125 92.375 C 188.828125 92.683594 190.59375 92.9375 192.5 93.183594 C 193.460938 93.289062 194.441406 93.464844 195.503906 93.503906 C 196.566406 93.539062 197.679688 93.609375 198.820312 93.609375 C 201.128906 93.742188 203.507812 93.414062 206.011719 93.175781 C 206.632812 93.09375 207.273438 93.027344 207.890625 92.925781 C 208.492188 92.8125 209.097656 92.695312 209.710938 92.578125 C 210.933594 92.347656 212.164062 92.078125 213.40625 91.804688 C 215.9375 91.285156 218.277344 90.539062 220.699219 89.824219 C 223.09375 89.089844 225.515625 88.335938 227.785156 87.46875 C 230.078125 86.613281 232.308594 85.703125 234.441406 84.75 C 236.570312 83.792969 238.621094 82.820312 240.511719 81.789062 C 241.46875 81.300781 242.382812 80.785156 243.265625 80.273438 C 244.152344 79.78125 244.996094 79.265625 245.808594 78.765625 C 247.429688 77.773438 248.886719 76.785156 250.171875 75.878906 C 251.449219 74.96875 252.550781 74.121094 253.445312 73.394531 C 255.230469 71.929688 256.199219 70.949219 256.199219 70.949219 C 256.199219 70.949219 254.832031 70.769531 252.523438 70.703125 C 251.371094 70.683594 249.984375 70.6875 248.414062 70.753906 C 246.847656 70.824219 245.089844 70.941406 243.199219 71.152344 C 242.257812 71.253906 241.273438 71.363281 240.269531 71.519531 C 239.257812 71.65625 238.21875 71.8125 237.164062 72.011719 C 235.035156 72.363281 232.835938 72.816406 230.578125 73.351562 C 228.320312 73.890625 226.011719 74.515625 223.691406 75.226562 Z M 216.945312 56.304688 C 218.539062 55.878906 220.132812 55.371094 221.761719 54.976562 L 224.183594 54.34375 C 224.996094 54.148438 225.804688 53.957031 226.605469 53.765625 C 228.207031 53.386719 229.785156 53.019531 231.332031 52.714844 C 232.855469 52.367188 234.367188 52.105469 235.78125 51.824219 C 236.492188 51.695312 237.183594 51.566406 237.851562 51.441406 C 238.523438 51.324219 239.191406 51.234375 239.800781 51.109375 C 242.320312 50.683594 244.421875 50.328125 245.894531 50.078125 C 247.335938 49.769531 248.265625 49.601562 248.265625 49.601562 C 248.265625 49.601562 247.734375 50.285156 246.628906 51.472656 C 246.0625 52.015625 245.347656 52.628906 244.5 53.332031 C 243.648438 54.03125 242.65625 54.703125 241.5625 55.46875 C 240.460938 56.214844 239.246094 56.921875 237.945312 57.691406 C 236.640625 58.421875 235.253906 59.148438 233.792969 59.863281 C 232.34375 60.578125 230.816406 61.242188 229.261719 61.914062 C 227.703125 62.554688 226.109375 63.1875 224.5 63.761719 C 222.902344 64.351562 221.269531 64.863281 219.679688 65.386719 C 218.074219 65.875 216.480469 66.308594 214.921875 66.648438 C 213.363281 67.007812 211.828125 67.253906 210.375 67.46875 C 208.910156 67.65625 207.515625 67.796875 206.214844 67.859375 C 203.609375 67.996094 201.382812 67.886719 199.804688 67.714844 C 199.011719 67.632812 198.378906 67.519531 197.949219 67.441406 C 197.519531 67.371094 197.285156 67.304688 197.285156 67.304688 L 197.03125 66.339844 C 197.03125 66.339844 197.203125 66.164062 197.539062 65.890625 C 197.875 65.609375 198.363281 65.203125 199 64.730469 C 200.273438 63.792969 202.125 62.578125 204.398438 61.351562 C 205.539062 60.738281 206.785156 60.136719 208.113281 59.527344 C 209.449219 58.953125 210.855469 58.339844 212.339844 57.8125 C 213.820312 57.277344 215.359375 56.757812 216.945312 56.304688" fill="#23773c"/></g><g clip-path="url(#b)" id="change2_1"><path d="M 0 401.960938 C 0 401.960938 2.628906 395.789062 7.398438 385.0625 C 9.808594 379.710938 12.742188 373.21875 16.171875 365.796875 C 19.617188 358.386719 23.546875 350.039062 27.886719 340.960938 C 32.246094 331.894531 37.054688 322.113281 42.183594 311.785156 C 47.324219 301.464844 52.867188 290.640625 58.679688 279.480469 C 64.449219 268.300781 70.605469 256.847656 76.933594 245.25 C 80.125 239.464844 83.339844 233.632812 86.570312 227.78125 C 89.851562 221.957031 93.128906 216.097656 96.496094 210.289062 C 103.226562 198.671875 110.027344 187.089844 116.910156 175.800781 C 118.628906 172.976562 120.339844 170.164062 122.046875 167.367188 C 123.753906 164.570312 125.523438 161.832031 127.25 159.089844 C 128.984375 156.355469 130.710938 153.632812 132.421875 150.933594 C 134.167969 148.253906 135.902344 145.59375 137.621094 142.953125 C 139.347656 140.320312 141.023438 137.683594 142.753906 135.117188 C 144.492188 132.558594 146.21875 130.023438 147.921875 127.519531 C 151.308594 122.488281 154.761719 117.660156 158.089844 112.9375 C 161.371094 108.1875 164.765625 103.699219 168.007812 99.339844 C 171.21875 94.953125 174.464844 90.820312 177.554688 86.835938 C 179.097656 84.84375 180.613281 82.894531 182.128906 81.015625 C 183.664062 79.15625 185.164062 77.335938 186.628906 75.5625 C 189.554688 72.019531 192.289062 68.628906 195.035156 65.578125 C 197.753906 62.511719 200.261719 59.617188 202.640625 56.988281 C 205.074219 54.410156 207.308594 52.039062 209.324219 49.902344 C 210.335938 48.835938 211.292969 47.828125 212.195312 46.878906 C 213.128906 45.960938 214.003906 45.101562 214.816406 44.296875 C 216.457031 42.710938 217.855469 41.363281 218.984375 40.269531 C 221.246094 38.085938 222.453125 36.917969 222.453125 36.917969 C 222.453125 36.917969 221.363281 38.195312 219.320312 40.585938 C 218.300781 41.78125 217.039062 43.253906 215.5625 44.984375 C 214.816406 45.847656 214.015625 46.769531 213.164062 47.757812 C 212.34375 48.773438 211.472656 49.851562 210.550781 50.992188 C 208.703125 53.261719 206.65625 55.777344 204.429688 58.511719 C 202.242188 61.28125 199.9375 64.324219 197.445312 67.546875 C 194.921875 70.742188 192.351562 74.234375 189.636719 77.914062 C 188.277344 79.75 186.886719 81.632812 185.457031 83.5625 C 184.066406 85.515625 182.644531 87.515625 181.1875 89.558594 C 178.269531 93.636719 175.207031 97.859375 172.1875 102.34375 C 169.140625 106.808594 165.941406 111.386719 162.765625 116.175781 C 159.570312 120.949219 156.253906 125.828125 153.007812 130.914062 C 149.738281 135.984375 146.339844 141.121094 142.996094 146.425781 C 141.3125 149.066406 139.613281 151.730469 137.898438 154.414062 C 136.222656 157.121094 134.53125 159.84375 132.828125 162.585938 C 131.128906 165.324219 129.414062 168.085938 127.695312 170.855469 C 125.992188 173.636719 124.28125 176.433594 122.566406 179.242188 C 115.6875 190.472656 108.886719 201.996094 102.15625 213.5625 C 98.8125 219.359375 95.46875 225.152344 92.136719 230.925781 C 88.851562 236.730469 85.582031 242.507812 82.339844 248.242188 C 79.140625 254.003906 75.925781 259.691406 72.839844 265.367188 C 69.726562 271.027344 66.65625 276.621094 63.632812 282.121094 C 57.59375 293.128906 51.925781 303.859375 46.488281 314.003906 C 41.078125 324.164062 36.023438 333.800781 31.394531 342.71875 C 26.734375 351.621094 22.511719 359.804688 18.800781 367.078125 C 15.0625 374.339844 11.832031 380.683594 9.191406 385.917969 C 3.871094 396.371094 0.910156 402.378906 0.910156 402.378906 L 0 401.960938" fill="#30aa41"/></g></g></svg>